<?xml version="1.0" encoding="UTF-8"?>
<svg id="_图层_1" data-name="图层 1" xmlns="http://www.w3.org/2000/svg" viewBox="0 0 18.37 16.25">
  <defs>
    <style>
      .cls-1 {
        fill: #fde292;
      }

      .cls-1, .cls-2, .cls-3, .cls-4, .cls-5, .cls-6, .cls-7, .cls-8, .cls-9 {
        stroke: #000;
        stroke-miterlimit: 10;
      }

      .cls-1, .cls-3, .cls-4, .cls-5, .cls-6, .cls-7, .cls-8, .cls-9 {
        stroke-width: .1px;
      }

      .cls-2 {
        fill: none;
        stroke-width: .25px;
      }

      .cls-3 {
        fill: #eb9d68;
      }

      .cls-4 {
        fill: #d4e6c8;
      }

      .cls-10 {
        fill: #666;
      }

      .cls-11 {
        fill: #999;
      }

      .cls-5 {
        fill: #29abe2;
      }

      .cls-6 {
        fill: #fff;
      }

      .cls-7 {
        fill: #799ad3;
      }

      .cls-8 {
        fill: #77d666;
      }

      .cls-12 {
        fill: #b3b3b3;
      }

      .cls-9 {
        fill: #dadfed;
      }
    </style>
  </defs>
  <g>
    <g>
      <rect class="cls-8" x="8.62" y="6.12" width="4.25" height="2"/>
      <rect class="cls-3" x="8.62" y="8.12" width="4.25" height="2"/>
      <rect class="cls-8" x="8.62" y="4.12" width="4.25" height="2"/>
      <rect class="cls-8" x="8.62" y="2.12" width="4.25" height="2"/>
      <rect class="cls-6" x=".12" y=".12" width="4.25" height="2"/>
      <rect class="cls-5" x="8.62" y=".12" width="4.25" height="2"/>
      <rect class="cls-5" x="4.38" y=".12" width="4.25" height="2"/>
      <rect class="cls-3" x="4.38" y="8.12" width="4.25" height="2"/>
      <rect class="cls-6" x=".12" y="2.12" width="4.25" height="2"/>
      <rect class="cls-1" x="8.62" y="10.12" width="4.25" height="2"/>
      <rect class="cls-7" x="4.38" y="6.12" width="4.25" height="2"/>
      <rect class="cls-8" x="4.38" y="2.12" width="4.25" height="2"/>
      <rect class="cls-1" x="4.38" y="10.12" width="4.25" height="2"/>
      <rect class="cls-4" x="8.62" y="12.12" width="4.25" height="2"/>
      <rect class="cls-4" x="4.38" y="12.12" width="4.25" height="2"/>
      <rect class="cls-8" x="4.38" y="4.12" width="4.25" height="2"/>
      <rect class="cls-6" x="12.88" y="14.12" width="4.25" height="2"/>
      <rect class="cls-3" x="12.88" y="8.12" width="4.25" height="2"/>
      <rect class="cls-4" x="12.88" y="12.12" width="4.25" height="2"/>
      <rect class="cls-8" x="12.88" y="6.12" width="4.25" height="2"/>
      <rect class="cls-1" x="12.88" y="10.12" width="4.25" height="2"/>
      <rect class="cls-5" x="12.88" y=".12" width="4.25" height="2"/>
      <rect class="cls-7" x="12.88" y="4.12" width="4.25" height="2"/>
      <rect class="cls-9" x="12.88" y="2.12" width="4.25" height="2"/>
      <rect class="cls-6" x=".12" y="4.12" width="4.25" height="2"/>
      <rect class="cls-6" x=".12" y="8.12" width="4.25" height="2"/>
      <rect class="cls-6" x=".12" y="10.12" width="4.25" height="2"/>
      <rect class="cls-6" x="8.62" y="14.12" width="4.25" height="2"/>
      <rect class="cls-6" x=".12" y="6.12" width="4.25" height="2"/>
      <rect class="cls-6" x="4.38" y="14.12" width="4.25" height="2"/>
      <rect class="cls-6" x=".12" y="14.12" width="4.25" height="2"/>
      <rect class="cls-6" x=".12" y="12.12" width="4.25" height="2"/>
    </g>
    <rect class="cls-2" x=".12" y=".12" width="17" height="16"/>
    <line class="cls-2" x1=".12" y1="2.12" x2="17.12" y2="2.12"/>
  </g>
  <g>
    <rect class="cls-11" x="13.48" y="7.92" width="3" height="5" transform="translate(7.22 -6.09) rotate(30)"/>
    <path class="cls-10" d="M11.98,15.62h0c-.21-.8-.33-1.25-.55-2.05l.75-1.3,2.6,1.5-.75,1.3-2.05.55Z"/>
    <path class="cls-12" d="M16.6,5.96h.75c.62,0,1.12.5,1.12,1.12v.88h-3v-.88c0-.62.5-1.12,1.12-1.12Z" transform="translate(5.75 -7.56) rotate(30)"/>
  </g>
</svg>