<svg id="图层_1" data-name="图层 1" xmlns="http://www.w3.org/2000/svg" viewBox="0 0 17.03 16.12"><defs><style>.cls-1{fill:none;}.cls-1,.cls-2,.cls-3,.cls-4,.cls-5,.cls-6{stroke:#231815;stroke-miterlimit:10;stroke-width:0.25px;}.cls-2{fill:#00a0e9;}.cls-3{fill:#8bc777;}.cls-4{fill:#ee8699;}.cls-5{fill:#d7e7aa;}.cls-6{fill:#abb345;}</style></defs><rect class="cls-1" x="11.31" y="10.71" width="2.8" height="2.65"/><rect class="cls-1" x="2.92" y="10.71" width="2.8" height="2.65"/><rect class="cls-1" x="8.52" y="10.71" width="2.8" height="2.65"/><rect class="cls-1" x="5.72" y="10.71" width="2.8" height="2.65"/><rect class="cls-1" x="11.31" y="8.06" width="2.8" height="2.65"/><rect class="cls-1" x="11.31" y="2.77" width="2.8" height="2.65"/><rect class="cls-2" x="11.31" y="0.13" width="2.8" height="2.65"/><rect class="cls-1" x="11.31" y="5.42" width="2.8" height="2.65"/><rect class="cls-1" x="2.92" y="2.77" width="2.8" height="2.65"/><rect class="cls-1" x="8.52" y="8.06" width="2.8" height="2.65"/><rect class="cls-1" x="8.52" y="5.42" width="2.8" height="2.65"/><rect class="cls-3" x="5.72" y="8.06" width="2.8" height="2.65"/><rect class="cls-1" x="5.72" y="5.42" width="2.8" height="2.65"/><rect class="cls-1" x="2.92" y="5.42" width="2.8" height="2.65"/><rect class="cls-1" x="2.92" y="8.06" width="2.8" height="2.65"/><rect class="cls-2" x="8.52" y="0.13" width="2.8" height="2.65"/><rect class="cls-1" x="5.72" y="2.77" width="2.8" height="2.65"/><rect class="cls-1" x="8.52" y="2.77" width="2.8" height="2.65"/><rect class="cls-1" x="14.11" y="10.71" width="2.8" height="2.65"/><rect class="cls-1" x="14.11" y="13.35" width="2.8" height="2.65"/><rect class="cls-1" x="5.72" y="13.35" width="2.8" height="2.65"/><rect class="cls-1" x="8.52" y="13.35" width="2.8" height="2.65"/><rect class="cls-4" x="11.31" y="13.35" width="2.8" height="2.65"/><rect class="cls-5" x="14.11" y="2.77" width="2.8" height="2.65"/><rect class="cls-1" x="14.11" y="8.06" width="2.8" height="2.65"/><rect class="cls-2" x="14.11" y="0.13" width="2.8" height="2.65"/><rect class="cls-1" x="14.11" y="5.42" width="2.8" height="2.65"/><rect class="cls-6" x="0.13" y="5.42" width="2.8" height="2.65"/><rect class="cls-2" x="0.13" y="0.13" width="2.8" height="2.65"/><rect class="cls-1" x="0.13" y="2.77" width="2.8" height="2.65"/><rect class="cls-2" x="2.92" y="0.13" width="2.8" height="2.65"/><rect class="cls-1" x="2.92" y="13.35" width="2.8" height="2.65"/><rect class="cls-2" x="5.72" y="0.13" width="2.8" height="2.65"/><rect class="cls-1" x="0.13" y="13.35" width="2.8" height="2.65"/><rect class="cls-1" x="0.13" y="10.71" width="2.8" height="2.65"/><rect class="cls-1" x="0.13" y="8.06" width="2.8" height="2.65"/></svg>