<?xml version="1.0" encoding="UTF-8"?>
<svg id="_图层_1" data-name="图层 1" xmlns="http://www.w3.org/2000/svg" viewBox="0 0 17.25 16.25">
  <defs>
    <style>
      .cls-1 {
        fill: #fde292;
      }

      .cls-1, .cls-2, .cls-3, .cls-4, .cls-5, .cls-6, .cls-7, .cls-8 {
        stroke: #000;
        stroke-miterlimit: 10;
      }

      .cls-1, .cls-3, .cls-4, .cls-5, .cls-6, .cls-7, .cls-8 {
        stroke-width: .1px;
      }

      .cls-2 {
        fill: none;
        stroke-width: .25px;
      }

      .cls-3 {
        fill: #eb9d68;
      }

      .cls-4 {
        fill: #d4e6c8;
      }

      .cls-5 {
        fill: #fff;
      }

      .cls-6 {
        fill: #799ad3;
      }

      .cls-7 {
        fill: #77d666;
      }

      .cls-8 {
        fill: #dadfed;
      }
    </style>
  </defs>
  <g>
    <rect class="cls-7" x="8.62" y="6.12" width="4.25" height="2"/>
    <rect class="cls-3" x="8.62" y="8.12" width="4.25" height="2"/>
    <rect class="cls-7" x="8.62" y="4.12" width="4.25" height="2"/>
    <rect class="cls-7" x="8.62" y="2.12" width="4.25" height="2"/>
    <rect class="cls-5" x=".12" y=".12" width="4.25" height="2"/>
    <rect class="cls-5" x="8.62" y=".12" width="4.25" height="2"/>
    <rect class="cls-5" x="4.38" y=".12" width="4.25" height="2"/>
    <rect class="cls-3" x="4.38" y="8.12" width="4.25" height="2"/>
    <rect class="cls-5" x=".12" y="2.12" width="4.25" height="2"/>
    <rect class="cls-1" x="8.62" y="10.12" width="4.25" height="2"/>
    <rect class="cls-6" x="4.38" y="6.12" width="4.25" height="2"/>
    <rect class="cls-7" x="4.38" y="2.12" width="4.25" height="2"/>
    <rect class="cls-1" x="4.38" y="10.12" width="4.25" height="2"/>
    <rect class="cls-4" x="8.62" y="12.12" width="4.25" height="2"/>
    <rect class="cls-4" x="4.38" y="12.12" width="4.25" height="2"/>
    <rect class="cls-7" x="4.38" y="4.12" width="4.25" height="2"/>
    <rect class="cls-5" x="12.88" y="14.12" width="4.25" height="2"/>
    <rect class="cls-3" x="12.88" y="8.12" width="4.25" height="2"/>
    <rect class="cls-4" x="12.88" y="12.12" width="4.25" height="2"/>
    <rect class="cls-7" x="12.88" y="6.12" width="4.25" height="2"/>
    <rect class="cls-1" x="12.88" y="10.12" width="4.25" height="2"/>
    <rect class="cls-5" x="12.88" y=".12" width="4.25" height="2"/>
    <rect class="cls-6" x="12.88" y="4.12" width="4.25" height="2"/>
    <rect class="cls-8" x="12.88" y="2.12" width="4.25" height="2"/>
    <rect class="cls-5" x=".12" y="4.12" width="4.25" height="2"/>
    <rect class="cls-5" x=".12" y="8.12" width="4.25" height="2"/>
    <rect class="cls-5" x=".12" y="10.12" width="4.25" height="2"/>
    <rect class="cls-5" x="8.62" y="14.12" width="4.25" height="2"/>
    <rect class="cls-5" x=".12" y="6.12" width="4.25" height="2"/>
    <rect class="cls-5" x="4.38" y="14.12" width="4.25" height="2"/>
    <rect class="cls-5" x=".12" y="14.12" width="4.25" height="2"/>
    <rect class="cls-5" x=".12" y="12.12" width="4.25" height="2"/>
  </g>
  <rect class="cls-2" x=".12" y=".12" width="17" height="16"/>
  <line class="cls-2" x1=".12" y1="2.12" x2="17.12" y2="2.12"/>
</svg>